Coordinates
version=1
nRows=11
nColumns=36
inDegrees=yes

Units are S.I. units (second, meters, Newtons, ...)
If the header above contains a line with 'inDegrees', this indicates whether rotational values are in degrees (yes) or radians (no).

endheader
time	pelvis_tilt	pelvis_list	pelvis_rotation	pelvis_tx	pelvis_ty	pelvis_tz	hip_flexion_r	hip_adduction_r	hip_rotation_r	knee_angle_r	knee_angle_r_beta	ankle_angle_r	subtalar_angle_r	mtp_angle_r	hip_flexion_l	hip_adduction_l	hip_rotation_l	knee_angle_l	knee_angle_l_beta	ankle_angle_l	subtalar_angle_l	mtp_angle_l	lumbar_extension	lumbar_bending	lumbar_rotation	arm_flex_r	arm_add_r	arm_rot_r	elbow_flex_r	pro_sup_r	arm_flex_l	arm_add_l	arm_rot_l	elbow_flex_l	pro_sup_l
      0.00000000	     -0.12209438	      2.78368746	     -4.30649496	      0.01661257	      1.26080420	     -0.06855719	     -8.88806535	     -1.05718622	     -0.87441840	      0.54803913	      0.00956509	      6.60979184	     -5.69327069	     -5.34136571	     -5.98576017	     -1.90051819	      1.47842594	      5.25212450	      0.09166687	      6.86903747	     -6.77561475	     -5.34136571	     -7.77750210	     -1.67435304	     -3.06609118	      5.26438200	     -7.35734340	     29.01636785	     21.27523717	     64.77576025	      7.53576940	     -9.51714523	     32.08780559	     24.44389862	     61.80582356
      0.01666670	     -1.16407624	      3.16339261	     -4.71103648	      0.01669340	      1.25652987	     -0.06789894	     -7.71184165	     -0.96896895	     -0.44782122	      0.37042274	      0.00646510	      8.54052169	     -3.20756063	     -5.82877489	     -5.67282979	     -1.32011889	      1.88990955	      4.14411549	      0.07232846	      6.90692361	     -4.98823272	     -5.82877489	     -6.14872815	     -1.49040465	     -2.72145873	      5.14477218	     -7.31958117	     29.57515196	     20.40024832	     65.01765966	      7.47068230	     -9.38446372	     33.04517874	     24.89412916	     62.42331083
      0.03333330	     -2.06406120	      3.42566864	     -5.06731219	      0.01270320	      1.25682123	     -0.06796684	     -6.49573387	     -0.98885125	     -0.77706342	      0.29626552	      0.00517081	      8.26162076	     -3.54955532	     -6.12128691	     -4.89796866	     -1.16793245	      1.37557155	      3.77037709	      0.06580549	      6.82035704	     -3.78581955	     -6.12128691	     -5.34794156	     -1.84906437	     -2.17636520	      4.79541607	     -7.27264702	     29.58585306	     20.48237232	     64.75852416	      7.86042891	     -9.59937345	     33.39648725	     25.36192469	     62.58567726
      0.05000000	     -2.18256238	      3.45667844	     -5.08537091	      0.01092328	      1.25591807	     -0.06728586	     -6.14779101	     -1.03218699	     -0.88405075	      0.26218161	      0.00457593	      8.42789671	     -3.19339802	     -6.21125432	     -5.12004947	     -1.09995992	      1.10530069	      2.89322887	      0.05049637	      6.13288652	     -3.32518824	     -6.21125432	     -5.20066254	     -2.13475144	     -1.72482454	      4.71269051	     -7.24105187	     32.05090427	     19.57410121	     65.90041359	      9.07614911	     -9.91343851	     38.68565801	     24.31567133	     64.92247790
      0.06666670	     -2.21591136	      3.35566614	     -5.09625213	      0.00597524	      1.25733828	     -0.06634570	     -5.87632278	     -0.89113533	     -0.67413533	      0.25119350	      0.00438415	      8.27136692	     -3.80522853	     -6.43661140	     -5.10415965	     -1.16464552	      1.09336871	      2.46254877	      0.04297958	      5.65700385	     -3.20218788	     -6.43661140	     -5.73318443	     -2.12270784	     -1.38477127	      4.83062850	     -7.23222496	     32.29377502	     19.64787214	     66.11134328	     10.13955785	     -9.79560835	     40.90259147	     24.03898409	     65.72484471
      0.08333330	     -2.04054126	      3.29104515	     -5.06540278	      0.00543561	      1.25761710	     -0.06642739	     -5.87097378	     -0.80424423	     -0.86469656	      0.24192119	      0.00422232	      8.15750959	     -3.84273258	     -6.42140452	     -5.25016364	     -1.20586649	      0.75903487	      2.24057077	      0.03910534	      5.55272904	     -2.56657280	     -6.42140452	     -6.28208458	     -2.11422160	     -1.36101766	      4.98880429	     -7.00713345	     32.11003790	     19.22180887	     65.99211704	     10.68765980	     -9.50142516	     40.98517678	     23.77510089	     65.65712877
      0.10000000	     -1.93308790	      3.22484127	     -5.14904980	      0.00545084	      1.25751515	     -0.06645001	     -5.84664543	     -0.71788793	     -0.48350486	      0.23597832	      0.00411860	      7.84704170	     -4.62781049	     -6.55677854	     -5.32733120	     -1.24804586	      0.65181829	      2.09960024	      0.03664494	      5.40531882	     -2.43142055	     -6.55677854	     -6.75786086	     -2.09656391	     -1.07959843	      5.10003795	     -7.08388539	     33.23415284	     19.25355570	     66.68335208	     11.50471668	     -9.51166131	     43.39832903	     23.62567611	     66.36031858
      0.11666670	     -1.81876673	      3.18499894	     -5.15898970	      0.00352704	      1.25796418	     -0.06631588	     -5.86144535	     -0.65373583	     -0.41461443	      0.23015228	      0.00401692	      7.71276130	     -4.92708095	     -6.66360560	     -5.35693860	     -1.28689736	      0.75346601	      2.08721633	      0.03642880	      5.24702290	     -2.52148740	     -6.66360560	     -7.17608541	     -2.05652349	     -1.09015538	      5.18973264	     -6.95566361	     33.01089483	     19.25424581	     66.37907735	     11.74200651	     -9.33826207	     43.33782453	     23.65963890	     65.99429839
      0.13333330	     -1.76751306	      3.12034373	     -5.23595540	      0.00241578	      1.25830825	     -0.06591298	     -5.88155480	     -0.55176880	     -0.19352420	      0.22609319	      0.00394607	      7.33856232	     -5.38792040	     -6.76813971	     -5.33159730	     -1.35630006	      0.61844960	      2.11778925	      0.03696240	      4.90683322	     -2.68876530	     -6.76813971	     -7.39041079	     -2.03751334	     -0.85981466	      5.18387803	     -7.02509953	     34.01662418	     19.02790403	     67.43284030	     12.19070902	     -9.21808892	     44.79887369	     23.06068975	     66.62243093
      0.15000000	     -1.69948166	      3.08972946	     -5.32369911	      0.00128001	      1.25802143	     -0.06604561	     -5.90939387	     -0.50543816	     -0.10804269	      0.22356900	      0.00390202	      7.23197812	     -5.55532347	     -6.90522636	     -5.31241096	     -1.39993741	      0.55447764	      2.25842767	      0.03941700	      4.66978943	     -2.75100998	     -6.90522636	     -7.57695759	     -2.01915808	     -0.73931684	      5.11813355	     -6.98338169	     34.06146746	     18.93087343	     68.03287048	     12.17025410	     -9.11849581	     45.01394557	     22.96805263	     66.75374583
      0.16666670	     -1.69829798	      3.06927902	     -5.42982043	      0.00002489	      1.25831411	     -0.06658754	     -5.83704566	     -0.49425238	     -0.02926238	      0.21902203	      0.00382266	      7.11293924	     -5.67347632	     -6.95414299	     -5.18771701	     -1.43185956	      0.34044530	      2.41593957	      0.04216610	      4.47219933	     -2.64074656	     -6.95414299	     -7.62739334	     -2.01092597	     -0.60129365	      4.99254614	     -6.94647603	     33.75614720	     18.88738756	     67.77446604	     11.99513009	     -9.03057918	     44.61766986	     23.01213051	     66.44799242
